<svg xmlns="http://www.w3.org/2000/svg" xmlns:xlink="http://www.w3.org/1999/xlink" width="20cm" height="20cm" viewBox="301 86 387 399"><g><rect style="fill:#fff" width="146.55" height="28" x="414" y="87"/><rect style="fill:none;fill-opacity:0;stroke-width:2;stroke:#000" width="146.55" height="28" x="414" y="87"/><text style="fill:#000;text-anchor:middle;font-family:sans-serif;font-style:normal;font-weight:700" x="487.275" y="106" font-size="16">ActionManager</text><rect style="fill:#fff" width="146.55" height="8" x="414" y="115"/><rect style="fill:none;fill-opacity:0;stroke-width:2;stroke:#000" width="146.55" height="8" x="414" y="115"/><rect style="fill:#fff" width="146.55" height="8" x="414" y="123"/><rect style="fill:none;fill-opacity:0;stroke-width:2;stroke:#000" width="146.55" height="8" x="414" y="123"/></g><g><rect style="fill:#fff" width="53.25" height="28" x="460" y="320"/><rect style="fill:none;fill-opacity:0;stroke-width:2;stroke:#000" width="53.25" height="28" x="460" y="320"/><text style="fill:#000;text-anchor:middle;font-family:sans-serif;font-style:italic;font-weight:700" x="486.625" y="339" font-size="16">View</text><rect style="fill:#fff" width="53.25" height="8" x="460" y="348"/><rect style="fill:none;fill-opacity:0;stroke-width:2;stroke:#000" width="53.25" height="8" x="460" y="348"/><rect style="fill:#fff" width="53.25" height="8" x="460" y="356"/><rect style="fill:none;fill-opacity:0;stroke-width:2;stroke:#000" width="53.25" height="8" x="460" y="356"/></g><g><rect style="fill:#fff" width="132.35" height="28" x="421" y="204"/><rect style="fill:none;fill-opacity:0;stroke-width:2;stroke:#000" width="132.35" height="28" x="421" y="204"/><text style="fill:#000;text-anchor:middle;font-family:sans-serif;font-style:normal;font-weight:700" x="487.175" y="223" font-size="16">ViewManager</text><rect style="fill:#fff" width="132.35" height="8" x="421" y="232"/><rect style="fill:none;fill-opacity:0;stroke-width:2;stroke:#000" width="132.35" height="8" x="421" y="232"/><rect style="fill:#fff" width="132.35" height="8" x="421" y="240"/><rect style="fill:none;fill-opacity:0;stroke-width:2;stroke:#000" width="132.35" height="8" x="421" y="240"/></g><g><polyline style="fill:none;fill-opacity:0;stroke-width:2;stroke:#000" points="487.275 157.177 487.275 174.5 487.175 174.5 487.175 202.994"/><polygon style="fill:#000" points="487.275 132.006 492.075 146.006 487.275 160.006 482.475 146.006"/><polygon style="fill:none;fill-opacity:0;stroke-width:2;stroke:#000" points="487.275 132.006 492.075 146.006 487.275 160.006 482.475 146.006"/><text style="fill:#000;text-anchor:start;font-family:monospace;font-style:normal;font-weight:400" x="491.175" y="198.994" font-size="12.8">1</text></g><g><polyline style="fill:none;fill-opacity:0;stroke-width:2;stroke:#000" points="487.175 274.177 487.175 291 486.625 291 486.625 318.994"/><polygon style="fill:#000" points="487.175 249.006 491.975 263.006 487.175 277.006 482.375 263.006"/><polygon style="fill:none;fill-opacity:0;stroke-width:2;stroke:#000" points="487.175 249.006 491.975 263.006 487.175 277.006 482.375 263.006"/><text style="fill:#000;text-anchor:start;font-family:monospace;font-style:normal;font-weight:400" x="490.625" y="314.994" font-size="12.8">1..*</text></g><g><rect style="fill:#fff" width="99.1" height="28" x="302" y="440"/><rect style="fill:none;fill-opacity:0;stroke-width:2;stroke:#000" width="99.1" height="28" x="302" y="440"/><text style="fill:#000;text-anchor:middle;font-family:sans-serif;font-style:normal;font-weight:700" x="351.55" y="459" font-size="16">FormView</text><rect style="fill:#fff" width="99.1" height="8" x="302" y="468"/><rect style="fill:none;fill-opacity:0;stroke-width:2;stroke:#000" width="99.1" height="8" x="302" y="468"/><rect style="fill:#fff" width="99.1" height="8" x="302" y="476"/><rect style="fill:none;fill-opacity:0;stroke-width:2;stroke:#000" width="99.1" height="8" x="302" y="476"/></g><g><rect style="fill:#fff" width="86.1" height="28" x="443.8" y="438.8"/><rect style="fill:none;fill-opacity:0;stroke-width:2;stroke:#000" width="86.1" height="28" x="443.8" y="438.8"/><text style="fill:#000;text-anchor:middle;font-family:sans-serif;font-style:normal;font-weight:700" x="486.85" y="457.8" font-size="16">ListView</text><rect style="fill:#fff" width="86.1" height="8" x="443.8" y="466.8"/><rect style="fill:none;fill-opacity:0;stroke-width:2;stroke:#000" width="86.1" height="8" x="443.8" y="466.8"/><rect style="fill:#fff" width="86.1" height="8" x="443.8" y="474.8"/><rect style="fill:none;fill-opacity:0;stroke-width:2;stroke:#000" width="86.1" height="8" x="443.8" y="474.8"/></g><g><rect style="fill:#fff" width="121.5" height="28" x="564.8" y="438.8"/><rect style="fill:none;fill-opacity:0;stroke-width:2;stroke:#000" width="121.5" height="28" x="564.8" y="438.8"/><text style="fill:#000;text-anchor:middle;font-family:sans-serif;font-style:normal;font-weight:700" x="625.55" y="457.8" font-size="16">KanbanView</text><rect style="fill:#fff" width="121.5" height="8" x="564.8" y="466.8"/><rect style="fill:none;fill-opacity:0;stroke-width:2;stroke:#000" width="121.5" height="8" x="564.8" y="466.8"/><rect style="fill:#fff" width="121.5" height="8" x="564.8" y="474.8"/><rect style="fill:none;fill-opacity:0;stroke-width:2;stroke:#000" width="121.5" height="8" x="564.8" y="474.8"/></g><g><polyline style="fill:none;fill-opacity:0;stroke-width:2;stroke-dasharray:8;stroke:#000" points="486.625 382.236 486.625 410 351.55 410 351.55 440"/><polygon style="fill:#fff" points="494.625 382.236 486.625 366.236 478.625 382.236"/><polygon style="fill:none;fill-opacity:0;stroke-width:2;stroke:#000" points="494.625 382.236 486.625 366.236 478.625 382.236"/></g><g><polyline style="fill:none;fill-opacity:0;stroke-width:2;stroke-dasharray:8;stroke:#000" points="486.625 383.242 486.625 409.903 486.85 409.903 486.85 438.8"/><polygon style="fill:#fff" points="494.625 383.242 486.625 367.242 478.625 383.242"/><polygon style="fill:none;fill-opacity:0;stroke-width:2;stroke:#000" points="494.625 383.242 486.625 367.242 478.625 383.242"/></g><g><polyline style="fill:none;fill-opacity:0;stroke-width:2;stroke-dasharray:8;stroke:#000" points="486.625 383.242 486.625 409.903 625.55 409.903 625.55 438.8"/><polygon style="fill:#fff" points="494.625 383.242 486.625 367.242 478.625 383.242"/><polygon style="fill:none;fill-opacity:0;stroke-width:2;stroke:#000" points="494.625 383.242 486.625 367.242 478.625 383.242"/></g></svg>